<?xml version="1.0" encoding="UTF-8"?>
<svg id="Layer_1" data-name="Layer 1" xmlns="http://www.w3.org/2000/svg" xmlns:xlink="http://www.w3.org/1999/xlink" viewBox="0 0 520 420">
  <defs>
    <style>
      .cls-1 {
        opacity: .53;
        stroke-width: .53px;
      }

      .cls-1, .cls-2, .cls-3, .cls-4, .cls-5, .cls-6, .cls-7, .cls-8, .cls-9, .cls-10, .cls-11, .cls-12, .cls-13, .cls-14, .cls-15, .cls-16, .cls-17, .cls-18 {
        fill: #fff;
      }

      .cls-1, .cls-2, .cls-3, .cls-4, .cls-5, .cls-6, .cls-7, .cls-8, .cls-9, .cls-10, .cls-11, .cls-12, .cls-13, .cls-14, .cls-15, .cls-17, .cls-18 {
        stroke: #000;
        stroke-miterlimit: 10;
      }

      .cls-19 {
        fill: url(#linear-gradient);
      }

      .cls-2 {
        opacity: .35;
        stroke-width: .35px;
      }

      .cls-3 {
        opacity: .65;
        stroke-width: .65px;
      }

      .cls-4 {
        opacity: .41;
        stroke-width: .41px;
      }

      .cls-5 {
        opacity: .47;
        stroke-width: .47px;
      }

      .cls-6 {
        opacity: .88;
        stroke-width: .88px;
      }

      .cls-7 {
        opacity: .59;
        stroke-width: .59px;
      }

      .cls-8 {
        opacity: .06;
        stroke-width: .06px;
      }

      .cls-9 {
        opacity: .29;
        stroke-width: .29px;
      }

      .cls-10 {
        opacity: .76;
        stroke-width: .76px;
      }

      .cls-12 {
        opacity: .82;
        stroke-width: .82px;
      }

      .cls-13 {
        opacity: .71;
        stroke-width: .71px;
      }

      .cls-14 {
        opacity: .12;
        stroke-width: .12px;
      }

      .cls-20 {
        fill: url(#linear-gradient-2);
      }

      .cls-15 {
        opacity: .94;
        stroke-width: .94px;
      }

      .cls-16 {
        opacity: 0;
      }

      .cls-17 {
        opacity: .18;
        stroke-width: .18px;
      }

      .cls-18 {
        opacity: .24;
        stroke-width: .24px;
      }
    </style>
    <linearGradient id="linear-gradient" x1="270.44" y1="196.14" x2="431.36" y2="387.92" gradientUnits="userSpaceOnUse">
      <stop offset="0" stop-color="#fff"/>
      <stop offset=".17" stop-color="#d6d9d4"/>
      <stop offset=".39" stop-color="#a8aea3"/>
      <stop offset=".59" stop-color="#868f80"/>
      <stop offset=".75" stop-color="#727b6a"/>
      <stop offset=".85" stop-color="#6b7563"/>
    </linearGradient>
    <linearGradient id="linear-gradient-2" x1="251.22" y1="223.86" x2="90.3" y2="32.08" xlink:href="#linear-gradient"/>
  </defs>
  <g>
    <path class="cls-16" d="M365.14,122.27c17.86,15.43,19.24,38.63-3.93,65.45-43.73,50.62-93.09,24.54-117.59,8.22-23.32-14.02-48.06-13.04-66.51,8.33-21.65,25.06-15.66,55.32,8.53,76.21,24.67,21.31,55.31,23.04,77.13-2.22,10.97-12.7,14.38-26.59,11.7-40.21l16.01-1.21c2.6,17.46-2.46,35.61-16.12,51.43-27.53,31.88-68.25,31.89-99.6,4.81-31.35-27.08-36.49-67.55-9.25-99.09,23.76-27.5,57.24-30.45,86.11-12.22,20.76,12.76,62.85,37.04,98.67-4.43,14.97-17.33,15.33-32.31,4.33-41.81-11.05-9.55-22.85-6.9-44.81,11.43-29.72,24.47-48.77,24.58-63.81,11.59-17.18-14.84-17.22-37.82,2.63-60.79,22.07-25.55,46.02-23.56,69.45-10.64l-8.24,14.56c-19.53-10.75-34.88-11.77-50.47,6.29-12.28,14.22-13.01,28.54-2.65,37.49,9.25,7.99,20.48,8.17,45.81-12.69,30.04-24.53,48.06-23.07,62.62-10.5"/>
    <path class="cls-8" d="M373.75,130.46c16.81,17.3,16.15,41.04-9.83,66.28-49.02,47.64-96.53,16.15-120.45-2.1-22.11-16.87-47.77-17.55-68.46,2.56-24.27,23.59-20.87,54.92,1.9,78.35,23.22,23.9,54.26,28.38,78.72,4.61,12.3-11.96,17.01-25.79,15.49-39.89l16.41,.19c1.1,18-5.67,36.03-21,50.92-30.87,30-72.33,26.39-101.83-3.97-29.5-30.36-31.14-72.03-.59-101.71,26.64-25.88,60.86-25.74,88.76-4.78,19.91,14.96,60.69,43.31,100.85,4.28,16.78-16.31,18.48-31.53,8.13-42.18-10.4-10.7-22.59-8.98-46.64,7.65-32.36,22.38-51.84,20.69-66,6.12-16.17-16.64-14.16-40.04,8.09-61.66,24.75-24.05,48.95-19.89,71.65-4.65l-9.68,14.09c-18.93-12.68-34.46-15.09-51.95,1.91-13.77,13.38-15.79,27.89-6.03,37.93,8.71,8.96,20.08,10.08,47.77-8.84,32.72-22.37,50.99-19.21,64.68-5.12"/>
    <path class="cls-14" d="M382.36,138.66c15.76,19.17,13.06,43.45-15.72,67.11-54.32,44.66-100.34,8.33-123.31-12.42-21.23-19.18-47.47-22.07-70.4-3.21-26.89,22.11-26.07,54.53-4.73,80.49,21.77,26.48,53.21,33.72,80.31,11.44,13.63-11.21,19.64-24.99,19.28-39.58l16.8,1.59c-.41,18.55-8.89,36.46-25.87,50.42-34.21,28.13-76.4,20.89-104.06-12.75-27.66-33.64-25.78-76.5,8.06-104.32,29.51-24.27,64.58-21.2,91.4,2.67,19.14,17.03,58.53,49.57,103.03,12.98,18.59-15.29,21.64-30.75,11.93-42.55-9.75-11.86-22.4-11.13-48.47,3.87-35.09,20.19-54.91,16.79-68.19,.65-15.16-18.44-11.11-42.25,13.54-62.52,27.42-22.55,51.88-16.22,73.85,1.34l-11.13,13.62c-18.32-14.61-34.04-18.4-53.42-2.47-15.26,12.54-18.57,27.25-9.42,38.38,8.16,9.93,19.73,12.05,49.73-4.99,35.45-20.15,53.91-15.35,66.75,.27"/>
    <path class="cls-17" d="M390.98,146.85c14.71,21.04,9.97,45.86-21.62,67.95-59.62,41.69-104.16,.5-126.17-22.74-20.35-21.49-47.18-26.58-72.35-8.98-29.52,20.64-31.28,54.13-11.36,82.63s52.15,39.06,81.9,18.26c14.96-10.46,22.27-24.19,23.07-39.27l17.2,3c-1.92,19.1-12.1,36.88-30.74,49.91-37.54,26.25-80.47,15.39-106.29-21.53-25.82-36.92-20.43-80.97,16.72-106.94,32.39-22.65,68.31-16.66,94.05,10.11,18.37,19.11,56.37,55.84,105.21,21.69,20.41-14.27,24.79-29.97,15.73-42.92-9.1-13.01-22.2-13.28-50.29,.09-37.81,17.99-57.99,12.89-70.37-4.82-14.15-20.24-8.05-44.47,19-63.39,30.1-21.04,54.81-12.55,76.06,7.33l-12.57,13.15c-17.72-16.55-33.62-21.72-54.89-6.85-16.74,11.71-21.34,26.61-12.8,38.82,7.62,10.9,19.38,14.02,51.69-1.15,38.18-17.92,56.83-11.49,68.82,5.65"/>
    <path class="cls-18" d="M399.59,155.05c13.66,22.9,6.87,48.27-27.52,68.78-64.92,38.71-107.97-7.32-129.03-33.06-19.47-23.8-46.89-31.1-74.29-14.76-32.14,19.16-36.49,53.74-17.99,84.76,18.87,31.64,51.1,44.4,83.49,25.09,16.29-9.71,24.89-23.39,26.87-38.95l17.6,4.4c-3.43,19.65-15.32,37.31-35.61,49.4-40.88,24.38-84.55,9.89-108.51-30.31-23.97-40.2-15.08-85.44,25.37-109.55,35.27-21.03,72.04-12.12,96.69,17.56,17.59,21.18,54.21,62.1,107.39,30.39,22.22-13.25,27.94-29.19,19.53-43.29-8.45-14.17-22.01-15.44-52.12-3.7-40.53,15.8-61.06,8.99-72.56-10.29-13.14-22.03-4.99-46.69,24.46-64.25,32.77-19.54,57.74-8.88,78.26,13.32l-14.02,12.68c-17.12-18.48-33.21-25.04-56.36-11.23-18.23,10.87-24.12,25.97-16.19,39.26,7.07,11.86,19.02,15.98,53.64,2.7,40.92-15.7,59.76-7.63,70.89,11.04"/>
    <path class="cls-9" d="M408.2,163.25c12.61,24.77,3.78,50.68-33.42,69.62-70.21,35.73-111.78-15.14-131.88-43.38-18.59-26.11-46.6-35.61-76.24-20.53-34.76,17.69-41.7,53.35-24.62,86.9,17.42,34.22,50.05,49.74,85.09,31.92,17.62-8.97,27.52-22.59,30.66-38.64l18,5.8c-4.93,20.19-18.53,37.73-40.48,48.9-44.21,22.5-88.62,4.39-110.74-39.09-22.13-43.48-9.72-89.91,34.03-112.17,38.15-19.41,75.77-7.58,99.34,25,16.82,23.26,52.05,68.37,109.57,39.1,24.03-12.23,31.1-28.41,23.34-43.66-7.8-15.33-21.81-17.59-53.95-7.48-43.26,13.61-64.13,5.1-74.74-15.77-12.13-23.83-1.94-48.9,29.92-65.12,35.44-18.04,60.67-5.21,80.46,19.31l-15.46,12.2c-16.51-20.41-32.79-28.36-57.83-15.61-19.72,10.03-26.89,25.32-19.57,39.7,6.53,12.83,18.67,17.95,55.6,6.55,43.65-13.47,62.68-3.76,72.95,16.42"/>
    <path class="cls-2" d="M416.82,171.44c11.56,26.64,.69,53.1-39.31,70.45-75.51,32.75-115.59-22.96-134.74-53.7-17.71-28.42-46.31-40.12-78.18-26.3-37.38,16.22-46.9,52.95-31.25,89.04,15.97,36.81,49,55.08,86.68,38.74,18.95-8.22,30.15-21.79,34.45-38.32l18.39,7.21c-6.44,20.74-21.75,38.16-45.35,48.39-47.55,20.63-92.69-1.11-112.97-47.87-20.28-46.76-4.37-94.38,42.68-114.79,41.03-17.8,79.5-3.04,101.98,32.45,16.05,25.33,49.88,74.63,111.74,47.8,25.85-11.21,34.25-27.63,27.14-44.03-7.15-16.48-21.61-19.74-55.78-11.26-45.98,11.41-67.2,1.2-76.93-21.24-11.12-25.63,1.12-51.12,35.38-65.98,38.12-16.53,63.6-1.54,82.67,25.3l-16.91,11.73c-15.91-22.35-32.37-31.68-59.31-19.99-21.21,9.2-29.67,24.68-22.96,40.14,5.99,13.8,18.32,19.92,57.56,10.4,46.38-11.25,65.6,.1,75.02,21.81"/>
    <path class="cls-4" d="M425.43,179.64c10.51,28.51-2.4,55.51-45.21,71.28-80.81,29.78-119.4-30.78-137.6-64.02-16.83-30.73-46.01-44.64-80.12-32.07-40.01,14.74-52.11,52.56-37.88,91.18,14.51,39.39,47.95,60.43,88.27,45.57,20.28-7.47,32.78-20.99,38.24-38.01l18.79,8.61c-7.95,21.29-24.96,38.58-50.22,47.89-50.89,18.75-96.77-6.61-115.2-56.65s.99-98.85,51.34-117.4c43.9-16.18,83.23,1.49,104.63,39.9,15.27,27.41,47.72,80.9,113.92,56.51,27.66-10.19,37.4-26.85,30.94-44.4-6.5-17.64-21.42-21.89-57.61-15.05-48.71,9.22-70.27-2.7-79.12-26.71-10.11-27.43,4.17-53.34,40.84-66.85,40.79-15.03,66.53,2.13,84.87,31.3l-18.35,11.26c-15.31-24.28-31.96-34.99-60.78-24.37-22.69,8.36-32.44,24.04-26.35,40.59,5.44,14.77,17.96,21.88,59.52,14.25,49.11-9.02,68.53,3.96,77.09,27.19"/>
    <path class="cls-5" d="M434.05,187.84c9.46,30.38-5.49,57.92-51.11,72.12-86.1,26.8-123.21-38.6-140.46-74.34-15.95-33.04-45.72-49.15-82.07-37.84-42.63,13.27-57.32,52.17-44.51,93.32,13.06,41.97,46.9,65.77,89.86,52.39,21.61-6.73,35.4-20.19,42.03-37.69l19.19,10.01c-9.45,21.83-28.18,39.01-55.09,47.38-54.22,16.88-100.84-12.11-117.43-65.43-16.6-53.32,6.34-103.32,59.99-120.02,46.78-14.56,86.96,6.03,107.27,47.34,14.5,29.48,45.56,87.17,116.1,65.21,29.47-9.17,40.56-26.07,34.74-44.77s-21.22-24.05-59.43-18.83c-51.43,7.02-73.34-6.6-81.3-32.18-9.1-29.23,7.23-55.55,46.3-67.71,43.47-13.53,69.46,5.81,87.07,37.29l-19.8,10.79c-14.7-26.21-31.54-38.31-62.25-28.75-24.18,7.53-35.22,23.39-29.73,41.03,4.9,15.74,17.61,23.85,61.48,18.1,51.84-6.8,71.45,7.82,79.16,32.58"/>
    <path class="cls-1" d="M442.66,196.03c8.4,32.25-8.58,60.33-57.01,72.95-91.4,23.82-127.02-46.42-143.32-84.66-15.07-35.35-45.43-53.67-84.01-43.61-45.25,11.79-62.53,51.77-51.14,95.45,11.61,44.55,45.85,71.11,91.45,59.22,22.94-5.98,38.03-19.39,45.82-37.38l19.58,11.42c-10.96,22.38-31.39,39.43-59.96,46.88-57.56,15-104.91-17.61-119.66-74.21-14.75-56.6,11.7-107.79,68.65-122.63,49.66-12.94,90.68,10.57,109.92,54.79,13.73,31.55,43.4,93.43,118.28,73.92,31.29-8.15,43.71-25.29,38.54-45.14-5.2-19.95-21.03-26.2-61.26-22.61-54.15,4.83-76.41-10.49-83.49-37.65-8.09-31.02,10.28-57.77,51.76-68.58,46.14-12.02,72.39,9.48,89.27,43.28l-21.24,10.32c-14.1-28.15-31.12-41.63-63.72-33.13-25.67,6.69-38,22.75-33.12,41.47,4.35,16.7,17.26,25.81,63.44,21.95,54.58-4.57,74.37,11.68,81.22,37.96"/>
    <path class="cls-7" d="M451.27,204.23c7.35,34.12-11.67,62.74-62.91,73.78-96.7,20.84-130.83-54.25-146.18-94.98-14.19-37.66-45.14-58.18-85.96-49.38-47.88,10.32-67.74,51.38-57.77,97.59,10.16,47.14,44.8,76.45,93.05,66.05,24.27-5.23,40.66-18.59,49.61-37.06l19.98,12.82c-12.47,22.93-34.61,39.86-64.83,46.37-60.89,13.13-108.99-23.11-121.89-82.99-12.91-59.88,17.05-112.26,77.3-125.25,52.54-11.32,94.41,15.11,112.57,62.23,12.95,33.63,41.24,99.7,120.46,82.62,33.1-7.13,46.87-24.51,42.34-45.51s-20.83-28.35-63.09-26.39c-56.88,2.63-79.48-14.39-85.67-43.12-7.07-32.82,13.34-59.99,57.22-69.44,48.81-10.52,75.32,13.15,91.48,49.27l-22.69,9.85c-13.5-30.08-30.7-44.95-65.2-37.51-27.16,5.85-40.77,22.11-36.5,41.91,3.81,17.67,16.9,27.78,65.39,25.8,57.31-2.34,77.3,15.55,83.29,43.35"/>
    <path class="cls-3" d="M459.89,212.43c6.3,35.99-14.76,65.15-68.8,74.62-102,17.87-134.64-62.07-149.03-105.3-13.31-39.97-44.85-62.69-87.9-55.15-50.5,8.85-72.94,50.98-64.41,99.73,8.71,49.72,43.75,81.79,94.64,72.87,25.6-4.48,43.28-17.79,53.4-36.75l20.38,14.22c-13.97,23.48-37.82,40.28-69.7,45.87-64.23,11.25-113.06-28.61-124.12-91.77-11.06-63.16,22.41-116.73,85.95-127.86,55.42-9.71,98.14,19.65,115.21,69.68,12.18,35.7,39.08,105.96,122.64,91.33,34.91-6.12,50.02-23.73,46.14-45.88s-20.64-30.5-64.92-30.18c-59.6,.44-82.55-18.29-87.86-48.6-6.06-34.62,16.4-62.2,62.68-70.31,51.49-9.02,78.25,16.82,93.68,55.26l-24.13,9.38c-12.89-32.01-30.29-48.27-66.67-41.89-28.64,5.02-43.55,21.47-39.89,42.36,3.27,18.64,16.55,29.54,67.35,29.65,60.04,.12,80.22,19.41,85.36,48.73"/>
    <path class="cls-13" d="M468.5,220.62c5.25,37.86-17.85,67.56-74.7,75.45-107.29,14.89-138.45-69.89-151.89-115.62-12.43-42.28-44.56-67.21-89.85-60.92-53.12,7.37-78.15,50.59-71.04,101.87,7.26,52.3,42.69,87.13,96.23,79.7,26.93-3.74,45.91-16.99,57.2-36.44l20.78,15.63c-15.48,24.02-41.04,40.71-74.57,45.36-67.56,9.38-117.13-34.11-126.35-100.55-9.22-66.44,27.76-121.2,94.61-130.48,58.3-8.09,101.87,24.19,117.86,77.12,11.41,37.78,36.92,112.23,124.81,100.03,36.73-5.1,53.17-22.95,49.94-46.25s-20.44-32.66-66.75-33.96c-62.33-1.75-85.62-22.19-90.05-54.07-5.05-36.42,19.45-64.42,68.14-71.18,54.16-7.52,81.18,20.49,95.88,61.25l-25.58,8.91c-12.29-33.95-29.87-51.58-68.14-46.27-30.13,4.18-46.32,20.82-43.27,42.8,2.72,19.61,16.2,31.71,69.31,33.49,62.77,2.11,83.14,23.27,87.43,54.12"/>
    <path class="cls-10" d="M477.11,228.82c4.2,39.73-20.95,69.97-80.6,76.29-112.59,11.91-142.26-77.71-154.75-125.94-11.55-44.59-44.26-71.72-91.79-66.7-55.74,5.9-83.36,50.2-77.67,104,5.81,54.88,41.64,92.47,97.82,86.53,28.26-2.99,48.54-16.19,60.99-36.12l21.17,17.03c-16.99,24.57-44.25,41.13-79.44,44.85-70.9,7.5-121.21-39.61-128.58-109.33-7.38-69.72,33.11-125.67,103.26-133.09,61.17-6.47,105.6,28.73,120.5,84.57,10.64,39.85,34.76,118.49,126.99,108.74,38.54-4.08,56.33-22.17,53.74-46.62-2.6-24.58-20.24-34.81-68.58-37.74-65.05-3.95-88.69-26.09-92.23-59.54-4.04-38.22,22.51-66.64,73.6-72.04,56.84-6.01,84.11,24.16,98.09,67.24l-27.02,8.44c-11.68-35.88-29.45-54.9-69.61-50.65-31.62,3.34-49.1,20.18-46.66,43.24,2.18,20.58,15.85,33.68,71.27,37.34,65.5,4.33,86.07,27.13,89.49,59.5"/>
    <path class="cls-12" d="M485.73,237.02c3.15,41.59-24.04,72.39-86.5,77.12-117.89,8.93-146.07-85.53-157.61-136.26-10.67-46.9-43.97-76.24-93.73-72.47-58.37,4.42-88.57,49.8-84.3,106.14,4.35,57.46,40.59,97.81,99.41,93.35,29.59-2.24,51.17-15.39,64.78-35.81l21.57,18.43c-18.5,25.12-47.46,41.56-84.31,44.35-74.24,5.63-125.28-45.11-130.81-118.11-5.53-73,38.47-130.14,111.92-135.71,64.05-4.85,109.33,33.26,123.15,92.01,9.86,41.93,32.59,124.76,129.17,117.44,40.35-3.06,59.48-21.39,57.54-46.99-1.95-25.74-20.05-36.96-70.4-41.52-67.77-6.14-91.76-29.98-94.42-65.01-3.03-40.01,25.56-68.85,79.06-72.91,59.51-4.51,87.05,27.83,100.29,73.23l-28.47,7.97c-11.08-37.81-29.04-58.22-71.09-55.03-33.11,2.51-51.88,19.54-50.05,43.68,1.63,21.55,15.49,35.65,73.23,41.19,68.24,6.56,88.99,30.99,91.56,64.89"/>
    <path class="cls-6" d="M494.34,245.21c2.1,43.46-27.13,74.8-92.39,77.95-123.19,5.96-149.88-93.35-160.47-146.58-9.79-49.21-43.68-80.75-95.68-78.24-60.99,2.95-93.77,49.41-90.93,108.28,2.9,60.05,39.54,103.15,101.01,100.18,30.92-1.49,53.79-14.59,68.57-35.49l21.97,19.84c-20,25.67-50.68,41.98-89.18,43.84-77.57,3.75-129.35-50.61-133.04-126.89-3.69-76.29,43.82-134.61,120.57-138.32,66.93-3.24,113.06,37.8,125.79,99.46,9.09,44,30.43,131.02,131.35,126.15,42.17-2.04,62.63-20.61,61.34-47.36-1.3-26.89-19.85-39.11-72.23-45.31-70.5-8.34-94.83-33.88-96.6-70.48-2.02-41.81,28.62-71.07,84.52-73.77,62.19-3.01,89.98,31.5,102.49,79.22l-29.91,7.5c-10.48-39.75-28.62-61.54-72.56-59.41-34.6,1.67-54.65,18.9-53.43,44.13,1.09,22.51,15.14,37.61,75.19,45.04,70.97,8.78,91.91,34.86,93.63,70.27"/>
    <path class="cls-15" d="M502.95,253.41c1.05,45.33-30.22,77.21-98.29,78.79-128.48,2.98-153.69-101.18-163.33-156.9-8.91-51.52-43.39-85.27-97.62-84.01-63.61,1.47-98.98,49.02-97.56,110.42,1.45,62.63,38.49,108.49,102.6,107.01,32.24-.75,56.42-13.79,72.36-35.18l22.37,21.24c-21.51,26.21-53.89,42.41-94.05,43.34-80.91,1.88-133.43-56.11-135.27-135.67C12.32,122.88,63.34,63.36,143.39,61.5c69.81-1.62,116.78,42.34,128.44,106.9,8.32,46.08,28.27,137.29,133.53,134.85,43.98-1.02,65.79-19.82,65.14-47.73s-19.66-41.26-74.06-49.09c-73.22-10.53-97.91-37.78-98.79-75.95-1.01-43.61,31.67-73.29,89.98-74.64,64.86-1.5,92.91,35.18,104.7,85.21l-31.36,7.03c-9.87-41.68-28.2-64.85-74.03-63.79-36.08,.84-57.43,18.25-56.82,44.57,.54,23.48,14.79,39.58,77.14,48.89,73.7,11.01,94.84,38.72,95.69,75.66"/>
    <path class="cls-11" d="M511.57,261.6c0,47.2-33.31,79.62-104.19,79.62-133.78,0-158.86-108.81-166.19-167.22-9.27-53.63-43.1-89.78-99.57-89.78-66.23,0-104.19,48.62-104.19,112.56s37.44,113.83,104.19,113.83c33.57,0,59.05-12.99,76.15-34.86l22.76,22.64c-23.02,26.76-57.11,42.83-98.92,42.83-84.24,0-137.5-61.61-137.5-144.45S58.66,53.22,142.01,53.22c72.69,0,120.92,46.82,131.08,114.35,7.84,48.1,26.11,143.55,135.71,143.55,45.79,0,68.94-19.04,68.94-48.1s-19.43-43.61-75.89-52.87c-75.9-12.99-100.98-41.68-100.98-81.43,0-45.41,34.73-75.5,95.44-75.5,67.53,0,95.84,38.85,106.9,91.2l-32.8,6.56c-9.27-43.61-27.78-68.17-75.5-68.17-37.57,0-60.2,17.61-60.2,45.01,0,24.45,14.41,41.68,79.1,52.74,76.41,13.39,97.76,42.58,97.76,81.04"/>
  </g>
  <path class="cls-19" d="M299.97,186.39c1.32,7.05,4.29,13.63,8.5,19.37,4.22,5.75,9.6,10.67,15.47,14.97,11.87,8.56,25.6,14.7,39.69,20.15,3.53,1.36,7.1,2.68,10.7,3.99l2.67,.96c.85,.29,1.67,.59,2.54,.86,1.71,.56,3.46,1.09,5.25,1.59,7.12,2.03,14.62,3.78,22.26,5.89,7.63,2.12,15.46,4.53,23.27,8.16,3.9,1.82,7.79,3.96,11.54,6.58,3.75,2.62,7.35,5.73,10.54,9.4,1.6,1.82,3.06,3.8,4.41,5.86,.67,1.03,1.27,2.11,1.89,3.18,.56,1.06,1.08,2.11,1.62,3.17,2.03,4.3,3.55,8.91,4.48,13.65,.93,4.74,1.26,9.58,1.06,14.34-.2,4.77-.96,9.43-2.09,13.91-2.28,8.99-6.05,17.24-10.63,24.77-4.6,7.53-9.98,14.41-16.02,20.68-5.98,6.26-12.73,11.97-20.03,16.91-7.3,4.95-15.16,9.09-23.24,12.38-16.21,6.63-33,9.98-49.22,12.02l-3.15-36.28c14.42-.64,28.29-2.4,41.02-6.45,12.74-4.01,24.3-10.47,34.4-19.46,5.03-4.43,9.6-9.42,13.48-14.75,3.88-5.33,7-11.03,9-16.85,2.02-5.82,2.82-11.72,2.19-17.43-.31-2.86-.97-5.69-2-8.46l-.84-2.06c-.31-.62-.58-1.26-.91-1.87-.67-1.22-1.39-2.42-2.24-3.57-3.35-4.61-8.34-8.62-14.27-11.98-5.92-3.37-12.67-6.12-19.69-8.67-7.04-2.56-14.39-4.9-21.89-7.7-1.87-.7-3.76-1.43-5.65-2.22-.94-.38-1.9-.81-2.84-1.22l-2.67-1.21c-3.52-1.61-7.06-3.25-10.6-4.95-14.1-6.8-28.24-14.43-40.63-24.96-6.13-5.29-11.82-11.35-16.18-18.42-4.36-7.05-7.23-15.11-8.08-23.32l6.93-.97Z"/>
  <path class="cls-20" d="M221.7,233.61c-1.32-7.05-4.29-13.63-8.5-19.37-4.22-5.75-9.6-10.67-15.47-14.97-11.87-8.56-25.6-14.7-39.69-20.15-3.53-1.36-7.1-2.68-10.7-3.99l-2.67-.96c-.85-.29-1.67-.59-2.54-.86-1.71-.56-3.46-1.09-5.25-1.59-7.12-2.03-14.62-3.78-22.26-5.89-7.63-2.12-15.46-4.53-23.27-8.16-3.9-1.82-7.79-3.96-11.54-6.58-3.75-2.62-7.35-5.73-10.54-9.4-1.6-1.82-3.06-3.8-4.41-5.86-.67-1.03-1.27-2.11-1.89-3.18-.56-1.06-1.08-2.11-1.62-3.17-2.03-4.3-3.55-8.91-4.48-13.65-.93-4.74-1.26-9.58-1.06-14.34,.2-4.77,.96-9.43,2.09-13.91,2.28-8.99,6.05-17.24,10.63-24.77,4.6-7.53,9.98-14.41,16.02-20.68,5.98-6.26,12.73-11.97,20.03-16.91,7.3-4.95,15.16-9.09,23.24-12.38,16.21-6.63,33-9.98,49.22-12.02l3.15,36.28c-14.42,.64-28.29,2.4-41.02,6.45-12.74,4.01-24.3,10.47-34.4,19.46-5.03,4.43-9.6,9.42-13.48,14.75-3.88,5.33-7,11.03-9,16.85-2.02,5.82-2.82,11.72-2.19,17.43,.31,2.86,.97,5.69,2,8.46l.84,2.06c.31,.62,.58,1.26,.91,1.87,.67,1.22,1.39,2.42,2.24,3.57,3.35,4.61,8.35,8.62,14.27,11.98,5.92,3.37,12.67,6.12,19.69,8.67,7.04,2.56,14.39,4.9,21.89,7.7,1.87,.7,3.76,1.43,5.65,2.22,.94,.38,1.9,.81,2.84,1.22l2.67,1.21c3.52,1.61,7.06,3.25,10.6,4.95,14.1,6.8,28.24,14.43,40.63,24.96,6.13,5.29,11.82,11.35,16.18,18.42,4.36,7.05,7.23,15.11,8.08,23.32l-6.93,.97Z"/>
</svg>