<?xml version="1.0" encoding="utf-8"?>
<!-- Generator: Adobe Illustrator 27.6.1, SVG Export Plug-In . SVG Version: 6.00 Build 0)  -->
<svg version="1.1" id="Layer_2_00000085951329331261162870000004822905790143478419_"
	 xmlns="http://www.w3.org/2000/svg" xmlns:xlink="http://www.w3.org/1999/xlink" x="0px" y="0px" viewBox="0 0 214.6 300.2"
	 style="enable-background:new 0 0 214.6 300.2;" xml:space="preserve">
<style type="text/css">
	.st0{enable-background:new    ;}
	.st1{fill:#6B7563;}
</style>
<g id="Layer_1-2">
	<g class="st0">
		<path class="st1" d="M182.7,0.9c11.6,0,19.9,8,19.9,20.2c0,10.6-6.5,17.6-16,19.1l-1-6c7-1.2,11.6-5.6,11.6-13.2
			c0-8.9-6.3-13.8-14.5-13.8C174.2,7.1,168,12,168,21c0,7.7,4.8,12,12.1,13.2l-1,5.9c-9.6-1.3-16.4-8.5-16.4-19.2
			C162.7,8.7,171.1,0.9,182.7,0.9z"/>
	</g>
	<g class="st0">
		<path class="st1" d="M163.4,49.1v-5.8h39.2v5.8h-17.4v0.1c6.1,1.3,8.8,5.4,8.8,11c0,8.1-5.1,11-11.5,11h-19.1v-5.8h17.7
			c4.1,0,7.9-1.8,7.9-7.5c0-5.4-2.9-8.6-7.9-8.6H163.4z"/>
	</g>
	<g class="st0">
		<path class="st1" d="M163.4,75.4h29.9v5.8h-9.2v0.1c7,1.3,9.2,4.2,9.2,9.3v1.9h-6.1v-2.8c0-5.9-2.2-8.5-7.9-8.5h-15.8V75.4z"/>
	</g>
	<g class="st0">
		<path class="st1" d="M163.4,94.3h29.9v5.8h-29.9V94.3z M197.9,93.9h4.7v6.7h-4.7V93.9z"/>
	</g>
	<g class="st0">
		<path class="st1" d="M173.2,102.6l1,5.5c-4.1,1.1-7.1,3.2-7.1,9.1c0,4.4,1.7,6.6,4.5,6.7c2.5,0,3.8-1.9,4.9-8.6
			c1.5-8.3,4.3-11.3,9-11.3c5.2,0,8.7,4,8.7,11.9c0,8.1-3.5,11.6-9.3,13l-1.3-5.6c4.5-1.1,6.3-3.2,6.3-7.4c0-4-1.5-6-4-6
			s-4,1.6-5.1,8.1c-1.4,8.6-4.4,11.8-9,11.8c-5.4,0-9-4-9-12.5C162.7,107.5,167,104,173.2,102.6z"/>
	</g>
	<g class="st0">
		<path class="st1" d="M188.5,134.2v-4.6h4.8v4.6h8.3v5.8h-8.3v10h-4.8v-10h-15.4c-3.3,0-5.1,1.3-5.1,4.8c0,1.7,0.3,3.1,0.8,4.8
			l-5.1,0.7c-0.6-2.2-1-3.8-1-6.7c0-6.6,4.1-9.5,9.7-9.5H188.5z"/>
	</g>
	<g class="st0">
		<path class="st1" d="M178.5,149.7c9.8,0,15.6,6.5,15.6,16c0,9.4-5.8,15.9-15.6,15.9c-9.7,0-15.8-6-15.8-15.9
			C162.7,155.7,168.8,149.7,178.5,149.7z M178.5,155.6c-6.5,0-10.8,3.6-10.8,10.1c0,6.5,4.3,10.1,10.8,10.1
			c6.4,0,10.4-3.8,10.4-10.1C189,159.4,184.9,155.6,178.5,155.6z"/>
	</g>
	<g class="st0">
		<path class="st1" d="M162.7,202.3c0-6.9,3.6-10.5,9.7-11.8v-0.1h-17.7v-5.8h38.7v5.8h-8.8v0.1c6,1.3,9.5,5,9.5,11.7
			c0,8.5-6,12.9-15.6,12.9C168.7,215.1,162.7,210.4,162.7,202.3z M178.5,209.3c6.7,0,10.6-3,10.6-9.3c0-5.9-3.7-9.7-10.4-9.7h-0.4
			c-6.4,0-10.6,3.8-10.6,9.7C167.7,206.2,171.6,209.3,178.5,209.3z"/>
	</g>
	<g class="st0">
		<path class="st1" d="M163.4,224v-5.8h39.2v5.8h-17.4v0.1c6.1,1.3,8.8,5.4,8.8,11c0,8.1-5.1,11-11.5,11h-19.1v-5.8h17.7
			c4.1,0,7.9-1.8,7.9-7.5c0-5.4-2.9-8.6-7.9-8.6H163.4z"/>
	</g>
	<g class="st0">
		<path class="st1" d="M178.2,248.7c10,0,15.9,6.4,15.9,15.9c0,9.3-5.7,14.4-13.9,14.4c-1,0-2.2,0-3.6-0.1v-24.3
			c-5.8,0.6-9,4.2-9,10.1c0,5.6,2.8,7.9,6.3,8.9l-1.5,5.2c-5.9-1.6-9.7-6.1-9.7-14.1C162.7,255,168.4,248.7,178.2,248.7z M181,254.7
			v18.8c5.3-0.4,8.3-3.3,8.3-9.1C189.3,259,186.5,255.5,181,254.7z"/>
	</g>
	<g class="st0">
		<path class="st1" d="M163.4,282.1h29.9v5.8h-9.2v0.1c7,1.3,9.2,4.2,9.2,9.3v1.9h-6.1v-2.8c0-5.9-2.2-8.5-7.9-8.5h-15.8V282.1z"/>
	</g>
	<g class="st0">
		<path class="st1" d="M126.5,0.7l1.2,6c-6.1,1.1-9.8,5.2-9.8,12.2c0,6,2.3,9,5.9,9s5.4-2.6,6.6-10.5c1.7-11.1,5.9-14.6,11.5-14.6
			c6.5,0,10.8,5.1,10.8,14.4c0,10.1-5.4,14.4-12.5,15.9l-1.2-6c5.6-1.3,8.6-3.8,8.6-10.1c0-5-2.2-7.9-5.6-7.9c-3,0-5.1,1.8-6.7,11
			c-1.8,11.2-6,14.2-11.3,14.2c-6.8,0-11.3-4.9-11.3-15.6C112.7,6.9,118.7,1.7,126.5,0.7z"/>
	</g>
	<g class="st0">
		<path class="st1" d="M121.1,57.3L121.1,57.3c-5.5-1.5-8.3-5.7-8.3-11.2c0-6.1,2.8-10.1,8.4-10.1c5.2,0,9.2,3.5,9.2,11.1v10.1h1.6
			c4.7,0,7.2-1.9,7.2-6.9c0-4.5-2-7-6.9-7.9l0.8-5.6c7,1.1,10.9,5.4,10.9,13.6c0,8.7-4.2,12.5-11.9,12.5h-18.6v-5.8H121.1z
			 M124.6,57.3h1.4V48c0-4-1.4-6.1-4-6.1c-2.3,0-4.5,1.5-4.5,6.1C117.5,53.8,120.5,57.3,124.6,57.3z"/>
	</g>
	<g class="st0">
		<path class="st1" d="M113.4,67.6h29.9v5.8h-9.2v0.1c7,1.3,9.2,4.2,9.2,9.3v1.9h-6.1V82c0-5.9-2.2-8.5-7.9-8.5h-15.8V67.6z"/>
	</g>
	<g class="st0">
		<path class="st1" d="M122.2,109.4v-0.2c-6-1.3-9.5-5-9.5-11.6c0-8.5,6-13,15.6-13c9.9,0,15.9,4.8,15.8,12.9
			c0.1,6.9-3.6,10.5-9.7,11.8v0.1h18.2v5.8h-39.2v-5.8H122.2z M128.1,109.4h0.4c6.4,0,10.6-3.8,10.6-9.7c0-6.2-4-9.3-10.8-9.3
			c-6.7,0-10.5,3-10.5,9.3C117.8,105.7,121.4,109.4,128.1,109.4z"/>
	</g>
	<g class="st0">
		<path class="st1" d="M128.5,118.2c9.8,0,15.6,6.5,15.6,16c0,9.4-5.8,15.9-15.6,15.9c-9.7,0-15.8-6-15.8-15.9
			C112.7,124.2,118.8,118.2,128.5,118.2z M128.5,124.1c-6.5,0-10.8,3.6-10.8,10.1c0,6.5,4.3,10.1,10.8,10.1
			c6.4,0,10.4-3.8,10.4-10.1C139,127.9,134.9,124.1,128.5,124.1z"/>
	</g>
	<g class="st0">
		<path class="st1" d="M63.4,2.8h38.4V9H63.4V2.8z"/>
	</g>
	<g class="st0">
		<path class="st1" d="M63.4,19.7v-5.8h29.9v5.8h-8.1v0.1c6.1,1.3,8.8,5.4,8.8,11c0,8.1-5.1,11-11.5,11H63.4v-5.8h17.7
			c4.1,0,7.9-1.8,7.9-7.5c0-5.4-2.9-8.6-7.9-8.6H63.4z"/>
	</g>
	<g class="st0">
		<path class="st1" d="M88.5,47.5v-4.6h4.8v4.6h8.3v5.8h-8.3v10h-4.8v-10H73.1c-3.3,0-5.1,1.3-5.1,4.8c0,1.7,0.3,3.1,0.8,4.8
			l-5.1,0.7c-0.6-2.2-1-3.8-1-6.7c0-6.6,4.1-9.5,9.7-9.5H88.5z"/>
	</g>
	<g class="st0">
		<path class="st1" d="M78.2,63c10,0,15.9,6.4,15.9,15.9c0,9.3-5.7,14.4-13.9,14.4c-1,0-2.2,0-3.6-0.1V68.9c-5.8,0.6-9,4.2-9,10.1
			c0,5.6,2.8,7.9,6.3,8.9l-1.5,5.2c-5.9-1.6-9.7-6.1-9.7-14.1C62.7,69.4,68.4,63,78.2,63z M81,69v18.8c5.3-0.4,8.3-3.3,8.3-9.1
			C89.3,73.4,86.5,69.8,81,69z"/>
	</g>
	<g class="st0">
		<path class="st1" d="M63.4,96.4h29.9v5.8h-9.2v0.1c7,1.3,9.2,4.2,9.2,9.3v1.9h-6.1v-2.8c0-5.9-2.2-8.5-7.9-8.5H63.4V96.4z"/>
	</g>
	<g class="st0">
		<path class="st1" d="M71.1,134.7L71.1,134.7c-5.5-1.5-8.3-5.7-8.3-11.2c0-6.1,2.8-10.1,8.4-10.1c5.2,0,9.2,3.5,9.2,11.1v10.1H82
			c4.7,0,7.2-1.9,7.2-6.9c0-4.5-2-7-6.9-7.9l0.8-5.6c7,1.1,10.9,5.4,10.9,13.6c0,8.7-4.2,12.5-11.9,12.5H63.4v-5.8H71.1z
			 M74.6,134.7H76v-9.3c0-4-1.4-6.1-4-6.1c-2.3,0-4.5,1.5-4.5,6.1C67.5,131.2,70.5,134.7,74.6,134.7z"/>
	</g>
	<g class="st0">
		<path class="st1" d="M89,159.2c0-5.9-3.5-10-10.6-10c-6.7,0-10.6,4-10.6,10.2c0,6.1,3.5,8.1,8.1,9.3l-1.1,5.6
			c-7.6-1.4-12.1-6-12.1-14.9c0-9.8,5.7-16.3,15.7-16.3c9.9,0,15.7,6.7,15.7,16.1c0,9.1-4.4,13.6-11.8,15l-1-5.6
			C86,167.4,89,164.7,89,159.2z"/>
	</g>
	<g class="st0">
		<path class="st1" d="M88.5,178.8v-4.6h4.8v4.6h8.3v5.8h-8.3v10h-4.8v-10H73.1c-3.3,0-5.1,1.3-5.1,4.8c0,1.7,0.3,3.1,0.8,4.8
			l-5.1,0.7c-0.6-2.2-1-3.8-1-6.7c0-6.6,4.1-9.5,9.7-9.5H88.5z"/>
	</g>
	<g class="st0">
		<path class="st1" d="M63.4,197h29.9v5.8H63.4V197z M97.9,196.6h4.7v6.7h-4.7V196.6z"/>
	</g>
	<g class="st0">
		<path class="st1" d="M78.5,205.7c9.8,0,15.6,6.5,15.6,16c0,9.4-5.8,15.9-15.6,15.9c-9.7,0-15.8-6-15.8-15.9
			C62.7,211.7,68.8,205.7,78.5,205.7z M78.5,211.5c-6.5,0-10.8,3.6-10.8,10.1c0,6.5,4.3,10.1,10.8,10.1c6.4,0,10.4-3.8,10.4-10.1
			C89,215.4,84.9,211.5,78.5,211.5z"/>
	</g>
	<g class="st0">
		<path class="st1" d="M63.4,246.3v-5.8h29.9v5.8h-8.1v0.1c6.1,1.3,8.8,5.4,8.8,11c0,8.1-5.1,11-11.5,11H63.4v-5.8h17.7
			c4.1,0,7.9-1.8,7.9-7.5c0-5.4-2.9-8.6-7.9-8.6H63.4z"/>
	</g>
	<g class="st0">
		<path class="st1" d="M28,9H13.4V2.8h38.4v15.4c0,9-4,13.8-11.9,13.8c-7,0-12-5-12-13.7V9z M46.6,9H33.2v8.7c0,5.2,2.1,8,6.7,8
			c4.7,0,6.7-2.4,6.7-8.1V9z"/>
	</g>
	<g class="st0">
		<path class="st1" d="M28.5,32.2c9.8,0,15.6,6.5,15.6,16c0,9.4-5.8,15.9-15.6,15.9c-9.7,0-15.8-6-15.8-15.9
			C12.7,38.2,18.8,32.2,28.5,32.2z M28.5,38.1c-6.5,0-10.8,3.6-10.8,10.1c0,6.5,4.3,10.1,10.8,10.1c6.4,0,10.4-3.8,10.4-10.1
			C39,41.9,34.9,38.1,28.5,38.1z"/>
	</g>
	<g class="st0">
		<path class="st1" d="M13.4,67h29.9v5.8h-9.2V73c7,1.3,9.2,4.2,9.2,9.3v1.9h-6.1v-2.8c0-5.9-2.2-8.5-7.9-8.5H13.4V67z"/>
	</g>
	<g class="st0">
		<path class="st1" d="M38.5,90.1v-4.6h4.8v4.6h8.3v5.8h-8.3v10h-4.8v-10H23.1c-3.3,0-5.1,1.3-5.1,4.8c0,1.7,0.3,3.1,0.8,4.8
			l-5.1,0.7c-0.6-2.2-1-3.8-1-6.7c0-6.6,4.1-9.5,9.7-9.5H38.5z"/>
	</g>
	<g class="st0">
		<path class="st1" d="M43.3,118.4v9.2h-4.8v-9.2H13.4v-5.8h25.1v-5.4h4.8v5.4h0.6c5.9,0,9.9,3.4,9.9,10.6c0,2.3-0.3,3.8-0.5,5
			l-4.2-0.5c0.3-1.4,0.4-2.6,0.4-3.8c0-3.8-1.9-5.4-5.5-5.4H43.3z"/>
	</g>
	<g class="st0">
		<path class="st1" d="M28.5,127.4c9.8,0,15.6,6.5,15.6,16c0,9.4-5.8,15.9-15.6,15.9c-9.7,0-15.8-6-15.8-15.9
			C12.7,133.4,18.8,127.4,28.5,127.4z M28.5,133.3c-6.5,0-10.8,3.6-10.8,10.1c0,6.5,4.3,10.1,10.8,10.1c6.4,0,10.4-3.8,10.4-10.1
			C39,137.1,34.9,133.3,28.5,133.3z"/>
	</g>
	<g class="st0">
		<path class="st1" d="M13.4,168.1v-5.8h39.2v5.8H13.4z"/>
	</g>
	<g class="st0">
		<path class="st1" d="M13.4,172.8h29.9v5.8H13.4V172.8z M47.9,172.4h4.7v6.7h-4.7V172.4z"/>
	</g>
	<g class="st0">
		<path class="st1" d="M28.5,181.5c9.8,0,15.6,6.5,15.6,16c0,9.4-5.8,15.9-15.6,15.9c-9.7,0-15.8-6-15.8-15.9
			C12.7,187.5,18.8,181.5,28.5,181.5z M28.5,187.4c-6.5,0-10.8,3.6-10.8,10.1c0,6.5,4.3,10.1,10.8,10.1c6.4,0,10.4-3.8,10.4-10.1
			C39,191.2,34.9,187.4,28.5,187.4z"/>
	</g>
</g>
</svg>
